# xmcd
# 
# Track frame offsets:
#     150
#     23250
#     40200
#     68325
# 
# Disc length: 1216
# 
# Revision: 3
# Processed by: cddbd v1.5.2PL0 Copyright (c) Steve Scherf et al.
# Submitted via: BonkEnc v1.0
# 
DISCID=1f04be04
DTITLE=AI - ONE
DYEAR=0
DGENRE=JPop
TTITLE0=ONE
TTITLE1=GET UP
TTITLE2=BRAND NEW DAY(Live)
TTITLE3=ONE (Instrumental)
EXTD=
EXTT0=
EXTT1=
EXTT2=
EXTT3=
PLAYORDER=
